<?xml version="1.0" encoding="utf-8"?>
<!-- Generator: Adobe Illustrator 27.6.1, SVG Export Plug-In . SVG Version: 6.00 Build 0)  -->
<svg version="1.1" xmlns="http://www.w3.org/2000/svg" xmlns:xlink="http://www.w3.org/1999/xlink" x="0px" y="0px"
	 viewBox="0 0 384.7 217.7" style="enable-background:new 0 0 384.7 217.7;" xml:space="preserve">
<style type="text/css">
	.st0{fill:#392E33;}
</style>
<g id="BACKGROUND">
</g>
<g id="OBJECT">
	<g>
		<path class="st0" d="M260,22.3H137.9c-0.8,0-1.4,0.6-1.4,1.4v109.6c0,0.8,0.6,1.4,1.4,1.4H260c0.8,0,1.4-0.6,1.4-1.4V23.7
			C261.4,22.9,260.8,22.3,260,22.3z M184.8,95.3c-6.1-0.6-11.3-5.1-15.9-9c-3.4-2.9-6.4-5.4-9.4-6.2c-4.9-1.3-14.5,4.6-20.2,8.8
			v-3.4c8.5-3.5,23-11.7,23.6-12.1c7.6-4.7,14-7.8,18.1-8.7c-0.8,2.7-1.6,7.2,1,11c1.6,2.4,1.9,3.6,2.1,4.7c0.2,1.2,0.4,2.4,2.2,4
			c2.2,2,4.2,2.9,6.3,3.8c0.8,0.3,1.7,0.7,2.6,1.2c1.5,0.8,2.7,1,3.8,1.3c1.5,0.3,3,0.7,5.6,2.3c1.3,0.9,2.5,1.9,3.4,3
			c-4.3-2.3-8-4.2-10.3-5.2C194.8,89.5,189.9,91.8,184.8,95.3z M139.3,92.5c5.3-4.3,12.4-8.4,16.8-9.5c-0.2,1.4-0.6,3.4-1.5,5.6
			c-0.7,1.7-1.5,2.2-2.2,2.6c-0.8,0.5-2.1,1.3-1.6,3.5c0.1,0.3,0.1,0.7,0.2,1.2c0.7,3.8,2.1,12.4,7.1,15.9c0.3,1.2,0.7,4.7-1.5,6.7
			c-0.7,0.2-1.4,0.2-2,0.3c-1.3,0.1-2.6,0.3-4.4,1.1c-0.8,0.4-1.7,0.8-2.7,1.3c-2.4,1.2-5.3,2.7-8.1,3.3V92.5z M231.8,70.3
			c1.4,2,1.5,3.2,1.7,4.4c0.1,1.2,0.2,2.5,1.4,4.1c2.1,2.7,11.7,6,19,8.1c-14.9-2.3-29.6-7.8-41.7-13c5.7-5,13.6-11,18.5-12.8
			C230,63.5,229.6,67.2,231.8,70.3z M258.6,25.1v48.2c-5.6-1-10.4-5.2-14.7-9c-3.4-3-6.3-5.6-9.3-6.4c-6.4-1.7-20.6,10.4-25.3,14.7
			c-4.5-2-8.6-4-12.2-5.6c-4.9-2.3-8.8-4.2-11.4-5.1c-4.2-1.4-12.4,1.6-24.3,9c-0.1,0.1-13.7,7.8-22.2,11.5V25.1H258.6z
			 M139.3,127.4c3.4-0.6,6.7-2.3,9.4-3.7c0.9-0.5,1.8-0.9,2.5-1.2c1.4-0.6,2.4-0.7,3.6-0.8c1.2-0.1,2.6-0.3,4.6-1
			c3.7-1.5,7-5,7.1-5.1c9-9.5,23.1-21.8,28.8-22.3c1.1,2.1,4.5,8.3,5.7,10.6c0,0,0,0.1,0,0.1c-0.2,0.1-0.5,0.4-0.8,0.5
			c-0.7,0.4-1.8,1-1.9,2.2c-0.1,1.3,0.9,2.2,1.3,2.5c3.3,3,14.7,7.2,25.3,8.5c4,1.6,7.9,3.8,8.3,4.8c-0.2,0.5-0.6,1.1-1,1.7
			c-1.3,2-2.9,4.6-2.1,7c0.1,0.2,0.2,0.4,0.3,0.6h-91.1V127.4z M170.6,46.6c0,7.4-6,13.4-13.4,13.4c-7.4,0-13.4-6-13.4-13.4
			s6-13.4,13.4-13.4C164.6,33.2,170.6,39.2,170.6,46.6z M207.8,50.6c0,3.7-3,6.7-6.7,6.7c-3.7,0-6.7-3-6.7-6.7c0-3.7,3-6.7,6.7-6.7
			C204.8,43.9,207.8,46.9,207.8,50.6z M232.9,40.6c0,2.2-1.8,4-4,4s-4-1.8-4-4c0-2.2,1.8-4,4-4S232.9,38.4,232.9,40.6z"/>
	</g>
	<g>
		<path class="st0" d="M114.7,175.2c9,4,28.5,17.8,46.3,17.8c5.9,0,10.9-2.4,14-4.9c0.5-0.4,1.1,0.2,0.5,0.7c-4.5,5.1-12.3,8-21.1,8
			c-12.2,0-21.4-5-34.7-13.4c-3.2-2.1-7.8-4.8-10.1-5.9c-3.1,1.1-6.5,1.7-10,1.7c-17.2,0-29.6-9.3-30.3-27.9
			c-0.7-17.6,12.7-30.5,31.1-30.5c18.4,0,28.4,13.9,28.4,28.3C128.9,160.9,123.3,170.1,114.7,175.2z M76.6,149.9
			c0,12.1,5.1,21.1,13.5,24.9c2.9-2.2,6.1-3.8,10.3-3.8c4.3,0,8,1.1,11.3,2.5c6.4-4.1,10.2-11.2,10.2-20.6c0-14.8-7.6-30-24.7-29.5
			C83.3,123.8,76.6,134.5,76.6,149.9z M107.2,175.7c-2.2-1.1-4.8-2.2-9.3-2.2c-2.4,0-4.6,0.7-6.3,2c2.4,0.9,5.1,1.3,8,1.3
			C102.4,176.9,104.9,176.5,107.2,175.7z"/>
		<path class="st0" d="M146.4,178.7c-5.1,0-9.4-2.6-9.4-8.4c0-6.5,4.2-9.9,11.7-11.4c2.6-0.5,5.5-0.6,8.2-0.7c0.1-2.5,0.1-5.5,0-7.3
			c-0.2-5.3-1.7-8.1-6.1-8.1c-2.1,0-4.3,0.8-5.3,2.3c-0.7,1.2-0.9,3.3-0.9,5.5c0,1,0.1,2,0.2,2.7c-2.5,0.2-5.2-1.4-5.2-4.3
			c0-5.4,6.5-8,11.3-8c5.9,0,11.6,2.7,11.6,10.3c0,4.1-0.1,10.3-0.1,14.6c0,9.5,1.3,9.7,5.9,9.4c0.6-0.1,0.6,0.8,0,1
			c-2.9,0.6-4.1,1.4-5.9,1.7c-3.5,0.7-5.2,0.3-5.5-4.6C153.8,177.4,149.7,178.7,146.4,178.7z M146.3,162.4c-2.5,1.8-3.2,4.3-3.2,7.2
			c0,4,2.5,5.9,6,5.9c3.8,0,6.7-2.1,7.6-4.6c0-3.9,0.1-11.2,0.1-11.2C152.2,159.8,148.5,160.7,146.3,162.4z"/>
		<path class="st0" d="M196,141.2c6.9,0,11.6,3.6,11.6,12.7c0,6.2,0,13.7,0.2,18.1c0.2,4,1.8,4.5,4.7,4.9c0.6,0,0.7,1,0,1
			c-3.2,0-5-0.3-7.2-0.3c-1.6,0-4.7,0.2-6.4,0.3c-0.6,0-0.5-0.9,0-1c2.2-0.3,2.8-1.8,2.9-4.9c0.2-4.6,0.2-12.4-0.1-17.9
			c-0.3-5.2-2.2-9.4-8.5-9.4c-3.6,0-7.1,1.8-9.1,3.6c-0.3,7.9-0.3,17.2,0.1,23.2c0.3,4.5,1.3,4.8,4.7,5.3c0.6,0,0.7,1,0,1
			c-3,0-5.7-0.3-7.6-0.3c-1.4,0-5,0.3-6.5,0.3c-0.6,0-0.5-0.9,0-1c2-0.4,3.1-0.8,3.4-5.3c0.4-4.4,0.3-17.2,0.1-20
			c-0.3-5-1.3-6.8-4-6.8h-1.1c-0.6,0-0.8-0.9-0.1-1c5.8-1.2,7.1-2.2,9.5-2.2c1.2,0,1.4,0.6,1.4,2.7v2.5
			C186.1,144.5,190.3,141.2,196,141.2z"/>
		<path class="st0" d="M228.4,178.7c-5.1,0-9.4-2.6-9.4-8.4c0-6.5,4.2-9.9,11.7-11.4c2.6-0.5,5.5-0.6,8.2-0.7c0.1-2.5,0.1-5.5,0-7.3
			c-0.2-5.3-1.7-8.1-6.1-8.1c-2.1,0-4.3,0.8-5.3,2.3c-0.7,1.2-0.9,3.3-0.9,5.5c0,1,0.1,2,0.2,2.7c-2.5,0.2-5.2-1.4-5.2-4.3
			c0-5.4,6.5-8,11.3-8c5.9,0,11.6,2.7,11.6,10.3c0,4.1-0.1,10.3-0.1,14.6c0,9.5,1.3,9.7,5.9,9.4c0.6-0.1,0.6,0.8,0,1
			c-2.9,0.6-4.1,1.4-5.9,1.7c-3.5,0.7-5.2,0.3-5.5-4.6C235.9,177.4,231.8,178.7,228.4,178.7z M228.4,162.4c-2.5,1.8-3.2,4.3-3.2,7.2
			c0,4,2.5,5.9,6,5.9c3.8,0,6.7-2.1,7.6-4.6c0-3.9,0.1-11.2,0.1-11.2C234.3,159.8,230.6,160.7,228.4,162.4z"/>
		<path class="st0" d="M265.3,168.1c0.5,4.6,2.3,7.4,6.7,7.4c2.9,0,5.6-1.3,7-4.8c0.4-0.8,1.2-0.5,1,0.2c-1.4,5.1-5.1,7.8-10.5,7.8
			c-6.8,0-9.8-4-9.9-10.8c-0.1-6.8,0-13-0.1-22.8c-1.3,0-3.8,0-5.3,0.5c-0.5,0.2-0.8-0.6-0.3-0.9c1.6-1.1,3-2.1,5.8-4.3
			c2.4-2,4-3.8,5.5-5.1c0.5-0.4,1,0,0.7,0.5c-0.2,0.6-0.5,1.5-0.5,3.2c-0.1,1.3-0.1,2.4-0.1,3.3c1.5,0,4.9-0.1,9.5-0.1
			c1.5,0,2.4-0.1,3.5-0.5c-0.2,1.1-0.9,3.1-1.5,3.4c-2.4,0-6.4-0.2-11.5-0.2C264.8,155.1,264.7,162.8,265.3,168.1z"/>
	</g>
	<g>
	</g>
	<g>
	</g>
	<g>
	</g>
	<g>
	</g>
	<g>
	</g>
	<g>
	</g>
</g>
</svg>
